<?xml version="1.0" standalone="no"?>
<!DOCTYPE svg PUBLIC "-//W3C//DTD SVG 20010904//EN"
 "http://www.w3.org/TR/2001/REC-SVG-20010904/DTD/svg10.dtd">
<svg version="1.0" xmlns="http://www.w3.org/2000/svg"
 width="700.000000pt" height="700.000000pt" viewBox="0 0 700.000000 700.000000"
 preserveAspectRatio="xMidYMid meet">
<metadata>
Created by potrace 1.11, written by Peter Selinger 2001-2013
</metadata>
<g transform="translate(0.000000,700.000000) scale(0.100000,-0.100000)"
fill="#000000" stroke="none">
<path d="M2251 6649 c-184 -13 -398 -54 -779 -149 -196 -49 -379 -96 -406
-104 -63 -19 -96 -50 -96 -90 0 -17 223 -1354 495 -2971 272 -1618 495 -2947
495 -2953 0 -28 40 -52 86 -52 55 0 855 200 1086 271 876 271 1578 676 2148
1240 426 421 677 838 772 1279 19 90 22 136 22 320 0 237 -13 328 -75 515
-150 452 -511 804 -1069 1043 -395 169 -797 247 -1347 259 l-262 6 38 46 c66
79 160 233 191 312 41 107 51 160 51 264 -1 149 -53 295 -149 417 -149 190
-463 317 -862 348 -140 11 -177 11 -339 -1z m97 -604 c139 -33 241 -105 289
-203 26 -52 28 -67 28 -167 0 -101 -2 -115 -28 -168 -58 -117 -187 -230 -358
-311 -119 -57 -145 -64 -152 -39 -16 57 -149 885 -143 890 25 25 258 24 364
-2z m1117 -1375 c373 -27 746 -126 1000 -265 418 -228 655 -602 681 -1075 14
-247 -61 -528 -203 -763 -323 -537 -965 -1026 -1703 -1300 -156 -58 -427 -143
-434 -136 -3 4 -576 3398 -576 3416 0 19 414 91 640 112 236 22 396 25 595 11z"/>
</g>
</svg>
