<?xml version="1.0" standalone="no"?>
<!DOCTYPE svg PUBLIC "-//W3C//DTD SVG 20010904//EN"
 "http://www.w3.org/TR/2001/REC-SVG-20010904/DTD/svg10.dtd">
<svg version="1.0" xmlns="http://www.w3.org/2000/svg"
 width="740.000000pt" height="740.000000pt" viewBox="0 0 740.000000 740.000000"
 preserveAspectRatio="xMidYMid meet">
<metadata>
Created by potrace 1.11, written by Peter Selinger 2001-2013
</metadata>
<g transform="translate(0.000000,740.000000) scale(0.100000,-0.100000)"
fill="#000000" stroke="none">
<path d="M5140 7245 c0 -4 29 -63 65 -133 36 -69 65 -127 65 -127 0 -1 -105
-1 -232 -1 -208 0 -487 -9 -536 -19 -10 -1 -49 -6 -87 -10 -39 -3 -81 -8 -95
-10 -14 -3 -47 -7 -74 -9 -26 -3 -56 -8 -65 -10 -9 -3 -38 -8 -66 -11 -27 -3
-57 -7 -65 -10 -8 -2 -31 -6 -50 -9 -19 -3 -46 -8 -60 -11 -14 -3 -38 -8 -55
-11 -52 -9 -347 -83 -420 -104 -38 -12 -77 -23 -85 -25 -8 -2 -16 -4 -17 -5
-2 -2 -6 -3 -10 -4 -25 -5 -215 -71 -250 -87 -24 -10 -50 -19 -58 -19 -34 0
-11 -19 48 -39 34 -12 71 -26 82 -31 22 -10 137 -54 145 -55 3 0 14 -6 25 -12
11 -6 22 -11 25 -11 3 0 18 -5 33 -11 16 -6 33 -11 39 -11 7 0 6 -6 -2 -15 -7
-8 -16 -12 -21 -9 -5 3 -9 1 -9 -4 0 -6 -17 -17 -37 -26 -54 -22 -189 -97
-320 -177 -39 -24 -105 -64 -145 -88 -40 -25 -79 -51 -86 -58 -7 -7 -17 -13
-22 -13 -5 0 -15 -6 -22 -13 -7 -6 -33 -25 -58 -41 -49 -32 -331 -242 -366
-272 -21 -19 -89 -76 -147 -124 -117 -97 -357 -338 -448 -450 -19 -23 -38 -47
-44 -54 -5 -6 -28 -34 -50 -61 -21 -28 -42 -52 -45 -55 -4 -3 -21 -26 -38 -52
-18 -25 -38 -53 -44 -60 -7 -7 -38 -49 -67 -93 -30 -44 -59 -81 -63 -83 -4 -2
-8 -9 -8 -16 0 -7 -8 -21 -18 -32 -9 -10 -33 -44 -52 -74 -19 -30 -37 -57 -40
-60 -11 -11 -70 -112 -70 -121 0 -5 -4 -9 -9 -9 -5 0 -14 -13 -21 -30 -7 -16
-16 -30 -21 -30 -5 0 -9 -4 -9 -10 0 -8 -22 -48 -100 -180 -29 -48 -98 -174
-128 -230 -18 -36 -42 -81 -52 -100 -30 -56 -120 -256 -120 -265 0 -3 -12 -24
-26 -47 -27 -43 -25 -68 7 -74 7 -1 26 -4 40 -7 36 -7 115 31 159 76 20 20 76
92 125 159 105 144 317 431 325 438 3 3 32 39 65 80 63 79 147 181 199 239 99
111 134 148 261 275 145 146 267 257 363 331 7 5 21 17 30 25 9 9 35 29 57 45
22 16 42 32 45 35 11 13 205 142 344 229 207 129 548 304 594 304 6 0 12 5 12
10 0 6 3 8 6 4 3 -3 18 -1 33 5 129 51 326 90 516 103 182 13 399 7 471 -14
48 -13 57 -3 32 32 -39 55 -153 163 -204 193 -44 26 -46 29 -24 34 29 7 248 3
315 -5 28 -3 68 -9 90 -12 150 -19 354 -95 447 -167 78 -59 188 -203 188 -246
0 -9 3 -20 7 -24 18 -18 31 -129 28 -231 -3 -108 -17 -180 -51 -260 -9 -22
-17 -42 -17 -45 -1 -17 -98 -166 -145 -224 -73 -90 -122 -138 -252 -249 -8 -7
-36 -28 -63 -47 -26 -19 -60 -45 -75 -57 -15 -13 -33 -23 -39 -23 -7 0 -13 -4
-13 -8 0 -5 -12 -15 -27 -23 -16 -8 -30 -17 -33 -20 -3 -3 -52 -32 -110 -64
-58 -33 -106 -63 -108 -67 -2 -4 -7 -8 -12 -8 -4 0 -68 -29 -141 -64 -134 -64
-295 -134 -324 -142 -5 -1 -23 -8 -40 -15 -16 -7 -33 -12 -36 -11 -5 1 -17
-23 -70 -143 -4 -11 -17 -42 -27 -70 -10 -27 -22 -59 -27 -70 -4 -11 -9 -24
-11 -30 -10 -33 -86 -233 -94 -247 -21 -36 -11 -44 83 -67 80 -19 160 -44 232
-70 11 -4 64 -29 119 -55 286 -137 370 -286 370 -656 0 -63 -4 -135 -8 -160
-4 -25 -9 -54 -10 -65 -2 -16 -11 -55 -21 -95 -56 -222 -223 -466 -403 -587
-31 -21 -59 -40 -62 -43 -33 -33 -341 -173 -430 -196 -8 -2 -33 -8 -55 -14
-251 -64 -445 5 -493 173 -8 31 -7 216 2 252 4 17 9 41 12 55 16 79 91 313
143 445 6 17 16 44 22 60 13 35 7 20 99 239 68 159 159 361 229 505 17 36 31
66 31 69 0 2 -17 1 -37 -3 -21 -4 -49 -9 -63 -11 -14 -3 -36 -7 -50 -9 -14 -3
-36 -8 -50 -10 -31 -6 -107 -22 -137 -29 -13 -2 -23 -3 -23 0 0 7 113 228 120
234 3 3 23 39 44 80 20 41 57 111 80 155 52 98 136 257 206 390 29 55 73 138
98 185 25 47 67 128 95 180 27 52 62 118 77 145 15 28 54 100 85 160 32 61 78
148 103 195 24 47 48 90 53 96 5 6 7 13 4 16 -3 3 1 11 10 18 8 7 15 17 15 23
0 5 14 32 31 59 16 28 29 52 27 54 -7 7 -63 7 -298 0 -129 -4 -309 -9 -400
-11 -388 -10 -566 -16 -584 -19 -21 -3 -30 -17 -145 -241 -46 -88 -93 -179
-106 -202 -13 -24 -21 -43 -18 -43 4 0 0 -8 -8 -17 -8 -10 -30 -49 -49 -88
-19 -38 -38 -71 -42 -73 -5 -2 -8 -12 -8 -22 0 -10 -3 -20 -7 -22 -5 -1 -37
-59 -72 -128 -35 -69 -85 -165 -111 -215 -26 -49 -76 -146 -111 -215 -35 -69
-68 -128 -74 -132 -5 -4 -6 -8 -1 -8 5 0 4 -6 -2 -12 -5 -7 -40 -71 -77 -143
-37 -71 -71 -134 -76 -140 -5 -5 -9 -17 -9 -26 0 -10 -3 -19 -7 -21 -5 -1 -30
-46 -57 -98 -136 -265 -199 -386 -208 -397 -17 -22 16 -15 125 23 56 20 107
37 112 38 12 3 41 14 74 27 13 5 26 8 28 5 3 -3 -11 -38 -31 -80 -20 -41 -36
-79 -36 -85 0 -6 -4 -11 -10 -11 -5 0 -9 -3 -8 -7 2 -10 -8 -32 -67 -158 -73
-154 -115 -245 -145 -310 -34 -74 -89 -192 -144 -310 -24 -49 -52 -110 -63
-135 -30 -66 -100 -214 -138 -295 -49 -105 -85 -183 -85 -188 0 -3 51 13 113
35 61 22 117 41 122 42 6 2 17 6 25 9 50 22 134 46 141 41 5 -3 5 -14 -1 -25
-6 -10 -9 -19 -7 -19 2 0 -1 -33 -7 -72 -13 -83 -14 -304 -1 -393 4 -33 8 -66
8 -72 0 -7 4 -13 8 -13 4 0 6 -8 5 -17 -7 -44 66 -226 129 -324 130 -201 342
-333 618 -384 233 -43 568 -37 867 15 85 15 100 18 169 36 36 9 73 17 83 19
79 16 370 116 498 172 121 53 411 209 455 245 5 4 41 29 79 54 77 52 67 45
196 150 128 106 303 282 393 396 10 13 29 37 43 53 94 113 274 424 309 535 1
3 5 12 8 20 19 46 54 168 64 223 19 112 24 384 9 507 -39 320 -145 553 -316
691 -53 43 -134 89 -158 90 -9 0 3 7 28 14 120 34 382 144 396 166 3 5 14 9
25 9 10 0 19 5 19 10 0 6 5 10 10 10 13 0 144 81 148 92 2 4 9 8 15 8 7 0 26
12 42 26 17 15 41 34 55 43 25 16 78 63 153 137 37 35 86 91 162 182 11 14 25
30 30 36 27 30 159 200 213 276 34 47 66 90 72 97 5 7 10 15 10 17 0 3 15 29
33 58 47 74 97 167 97 180 0 6 6 19 13 27 8 9 26 54 41 101 51 161 55 198 51
445 -2 127 -6 244 -9 260 -2 17 -7 53 -10 80 -3 28 -8 61 -11 75 -3 14 -9 48
-15 75 -19 102 -31 146 -71 268 -46 145 -187 413 -250 477 -8 8 -22 25 -31 38
-25 36 -130 143 -181 185 -25 21 -52 44 -59 50 -7 7 -51 38 -98 69 -214 142
-484 243 -779 293 -19 3 -38 8 -43 11 -4 3 -8 2 -8 -1z"/>
</g>
</svg>
