<?xml version="1.0" encoding="UTF-8"?>
<svg width="300" height="150" version="1.1" viewBox="0 0 79.374998 39.687501" xmlns="http://www.w3.org/2000/svg" xmlns:cc="http://creativecommons.org/ns#" xmlns:dc="http://purl.org/dc/elements/1.1/" xmlns:rdf="http://www.w3.org/1999/02/22-rdf-syntax-ns#">
<metadata>
<rdf:RDF>
<cc:Work rdf:about="">
<dc:format>image/svg+xml</dc:format>
<dc:type rdf:resource="http://purl.org/dc/dcmitype/StillImage"/>
<dc:title/>
</cc:Work>
</rdf:RDF>
</metadata>
<g transform="translate(0 -257.31)">
<flowRoot transform="scale(.26458)" fill="#000000" font-family="sans-serif" font-size="40px" letter-spacing="0px" word-spacing="0px" style="line-height:1.25" xml:space="preserve"><flowRegion><rect x="-931.43" y="165.38" width="162.86" height="191.43"/></flowRegion><flowPara/></flowRoot>
<flowRoot transform="scale(.26458)" fill="#000000" font-family="sans-serif" font-size="40px" letter-spacing="0px" word-spacing="0px" style="line-height:1.25" xml:space="preserve"><flowRegion><rect x="-691.43" y="179.66" width="102.86" height="131.43"/></flowRegion><flowPara/></flowRoot>
<flowRoot transform="scale(.26458)" fill="#000000" font-family="sans-serif" font-size="40px" letter-spacing="0px" word-spacing="0px" style="line-height:1.25" xml:space="preserve"><flowRegion><rect x="-1011.4" y="151.09" width="625.71" height="257.14"/></flowRegion><flowPara/><flowPara/></flowRoot>
<flowRoot transform="scale(.26458)" fill="#000000" font-family="sans-serif" font-size="40px" letter-spacing="0px" word-spacing="0px" style="line-height:1.25" xml:space="preserve"><flowRegion><rect x="-1054.3" y="96.805" width="48.571" height="74.286"/></flowRegion><flowPara/></flowRoot>
<g transform="translate(147.41 29.482)">
<g transform="matrix(.17541 .0093589 -.0091341 .17972 -74.849 238.73)" stroke="#000" stroke-linejoin="round">
<g transform="matrix(.77346 .2325 -.33352 1.1926 0 0)" fill="#ff7f2a" stroke-width="4.8084" style="font-feature-settings:normal;font-variant-caps:normal;font-variant-ligatures:normal;font-variant-numeric:normal" aria-label="A">
<path d="m-324.81 175.76v-92.498h-22.769v92.498h-9.9613v-92.498h-5.2856l-3.2527-9.758h8.5383q0-17.28 2.4395-23.582 4.4724-11.588 18.906-11.588 11.588 0 16.873 7.7251 4.4724 6.5053 4.4724 18.5v111.2zm0-114.66q0-5.6922-2.6428-9.1481-2.6428-3.6593-8.1317-3.6593-5.6922 0-8.9448 3.6593-3.0494 3.456-3.0494 9.3514v12.198h22.769z" fill="#ff7f2a" stroke="#000" stroke-linejoin="round" stroke-width="4.8084" style="font-feature-settings:normal;font-variant-caps:normal;font-variant-ligatures:normal;font-variant-numeric:normal"/>
</g>
<g transform="matrix(1.2348 -.37106 .1718 .75821 0 0)" fill="#806600" stroke-width="5" style="font-feature-settings:normal;font-variant-caps:normal;font-variant-ligatures:normal;font-variant-numeric:normal" aria-label="B">
<path d="m-302.39-128.47h13.305q14.817 0 24.493 8.7692 9.9788 8.4668 9.9788 23.284 0 12.095-10.281 22.377 24.191 6.9549 38.403 26.61 14.515 19.353 14.515 45.056 0 31.448-22.074 53.523-22.074 22.074-53.523 22.074h-14.817zm75.597 126.1q0-27.517-17.236-44.451-17.236-16.934-43.544-16.934v121.86q25.401 0 42.939-17.236 17.841-17.538 17.841-43.241zm-42.637-94.042q0-8.1645-5.1406-13.305-5.1406-5.1406-13.003-5.1406v36.589q7.8621 0 13.003-4.8382 5.1406-4.8382 5.1406-13.305z" fill="#806600" stroke="#000" stroke-linejoin="round" stroke-width="5" style="font-feature-settings:normal;font-variant-caps:normal;font-variant-ligatures:normal;font-variant-numeric:normal"/>
</g>
<g transform="matrix(1.2328 -.90514 .30948 .58395 0 0)" fill="#fc0" stroke-width="3.0783" style="font-feature-settings:normal;font-variant-caps:normal;font-variant-ligatures:normal;font-variant-numeric:normal" aria-label="N">
<path d="m-157.32-83.617v-103.27l-28.664-17.077v120.35h-9.9613v-137.83l38.625 23.175v-20.939h9.9613v135.6z" fill="#fc0" stroke="#000" stroke-linejoin="round" stroke-width="3.0783" style="font-feature-settings:normal;font-variant-caps:normal;font-variant-ligatures:normal;font-variant-numeric:normal"/>
</g>
<g transform="matrix(.86724 .020968 .49028 1.1649 0 0)" fill="#c87137" stroke-width="4.5834" style="font-feature-settings:normal;font-variant-caps:normal;font-variant-ligatures:normal;font-variant-numeric:normal" aria-label="F">
<path d="m-271.44 143.07q1.0251-6.9192 1.5376-16.145 0.51253-9.2256 0.51253-17.939v-38.953l-9.4819 1.2813v-29.727l9.4819 1.2813v-36.646q0-13.582-0.51253-18.964-0.25627-5.3816-1.5376-15.12h85.85v29.215q-7.1755-0.7688-14.351-1.2813-7.1755-0.51254-14.607-0.51254h-24.089v43.309h16.145q14.864 0 29.983-1.5376v29.471q-6.4067-0.7688-13.07-1.2813t-13.07-0.51254h-19.989v39.978q0 16.145 2.0501 34.084z" fill="#c87137" stroke-width="4.5834"/>
</g>
<g transform="matrix(.98466 .56015 -.39282 .79212 0 0)" fill="#ff0" stroke-width="4.9171" style="font-feature-settings:normal;font-variant-caps:normal;font-variant-ligatures:normal;font-variant-numeric:normal" aria-label="D">
<path d="m-172.52 99.128h8.9448q28.664 0 48.383 19.313 19.719 19.313 19.719 47.977 0 28.461-20.126 48.383-20.126 19.923-48.79 19.923h-8.1317zm67.086 67.086q0-23.785-16.873-40.658-16.67-17.077-40.252-17.077v116.08q24.192 0 40.658-16.873t16.467-41.472z" fill="#ff0" stroke="#000" stroke-linejoin="round" stroke-width="4.9171" style="font-feature-settings:normal;font-variant-caps:normal;font-variant-ligatures:normal;font-variant-numeric:normal"/>
</g>
<g transform="matrix(1.927 .86836 -.18299 .43648 0 0)" fill="#ff8080" stroke-width="3.984" style="font-feature-settings:normal;font-variant-caps:normal;font-variant-ligatures:normal;font-variant-numeric:normal" aria-label="E">
<path d="m-50.748 350.62v-92.294h-5.0823l-3.6593-9.758h8.7416v-33.543h34.763v9.9613h-24.802v23.582h23.582l3.6593 9.758h-27.241v82.333h24.802v9.9613z" fill="#ff8080" stroke="#000" stroke-linejoin="round" stroke-width="3.984" style="font-feature-settings:normal;font-variant-caps:normal;font-variant-ligatures:normal;font-variant-numeric:normal"/>
</g>
<g transform="matrix(.88464 .55778 -.44322 .85094 0 0)" fill="#d38d5f" stroke-width="5.0494" style="font-feature-settings:normal;font-variant-caps:normal;font-variant-ligatures:normal;font-variant-numeric:normal" aria-label="D">
<path d="m-28.119 10.336h10.686q34.244 0 57.802 23.072 23.558 23.072 23.558 57.316 0 34.001-24.044 57.802-24.044 23.801-58.288 23.801h-9.7146zm80.146 80.146q0-28.415-20.158-48.573-19.915-20.401-48.087-20.401v138.68q28.901 0 48.573-20.158 19.672-20.158 19.672-49.545z" fill="#d38d5f" stroke="#000" stroke-linejoin="round" stroke-width="5.0494" style="font-feature-settings:normal;font-variant-caps:normal;font-variant-ligatures:normal;font-variant-numeric:normal"/>
</g>
<g transform="matrix(.94093 -.22318 .22286 1.0099 0 0)" fill="#ff2a2a" stroke-width="5" style="font-feature-settings:normal;font-variant-caps:normal;font-variant-ligatures:normal;font-variant-numeric:normal" aria-label="U">
<path d="m-71.499 81.574q0 11.384-5.8955 18.906-5.6922 7.3185-16.873 7.3185-11.384 0-17.483-7.3185-6.0988-7.5218-6.0988-19.313v-110.79h9.9613v110.39q0 7.5218 2.8461 12.401 3.0494 4.6757 10.368 4.6757 7.3185 0 10.368-4.4724 3.0494-4.6757 3.0494-12.401v-110.59h9.758z" fill="#ff2a2a" stroke="#000" stroke-linejoin="round" stroke-width="5" style="font-feature-settings:normal;font-variant-caps:normal;font-variant-ligatures:normal;font-variant-numeric:normal"/>
</g>
</g>
</g>
</g>
</svg>
