<svg id="Lager_1" data-name="Lager 1" xmlns="http://www.w3.org/2000/svg" viewBox="0 0 860.38 149.96"><defs><style>.cls-1{fill:#e94500;}</style></defs><title>bf_c</title><path class="cls-1" d="M519,502.81l5.72-2.2-11.89,29.06,6.61-2.64s-4.85,22.89,14.53,24.65c10.44,1,23.07-2.79,33-11.09,8.47-7.11,15.05-18,15.45-26.77.88-18.93-7.92-21.13-7.92-21.13a32.44,32.44,0,0,0,15.85-11c6.16-8.36,10.29-14.69,10.29-22.17s0-32-25.26-36.38l2.2,4.84a78,78,0,0,0-36.1,6.61l7,3.08s-16,8.57-26.85,22.89c-7.15,9.43-14.13,23.53-16.24,29.51a7.88,7.88,0,0,1-1.1,2.19s1.71,2,4.13-1.1,11.94-21.12,26.2-31.7c10.21-7.58,16.26-10.37,27.29-9.69l2.42.45s-2-3.52-4.62-4.85c0,0,18.49-2.2,17.83,12.77s-23.55,23.77-24,24-3.83,11-3.83,11,10.21,2,12.19,7.73,1.76,18.49-7.7,24.66-16.51,5.06-15.19-3.75,8.8-25.75,8.8-25.75l-5.94,1.32,17-36.54-20.91.66Z" transform="translate(-504.29 -412.78)"/><rect class="cls-1" x="906.01" y="479.92" width="117.78" height="23.22" transform="translate(-75.98 1019.35) rotate(-87.29)"/><rect class="cls-1" x="991.38" y="434.76" width="38.71" height="24.88" transform="translate(-482.02 -460.05) rotate(2.71)"/><rect class="cls-1" x="989.16" y="481.71" width="38.71" height="24.88" transform="translate(-479.81 -459.89) rotate(2.71)"/><path class="cls-1" d="M729.24,438.91l25.12-2.15a3.86,3.86,0,0,1,3.71,2L787,491a3.86,3.86,0,0,0,7.23-2.2l-4.39-51.18a3.86,3.86,0,0,1,3.51-4.18l7.14-.61a3.86,3.86,0,0,1,4.18,3.52l8.53,99.51a3.86,3.86,0,0,1-3.52,4.18l-10.33.89a3.87,3.87,0,0,1-3.67-1.93l-50-87-2,.25,3.73,43.51a3.88,3.88,0,0,0,4.18,3.52l10.28-.89a3.87,3.87,0,0,1,4.18,3.52l3.23,37.68a3.86,3.86,0,0,1-3.52,4.17l-27.36,2.35a3.86,3.86,0,0,1-4.17-3.52l-8.54-99.51A3.87,3.87,0,0,1,729.24,438.91Z" transform="translate(-504.29 -412.78)"/><path class="cls-1" d="M869.84,454.8l-5,64.62,47.88,3.68ZM874,472.44l27.47,43.33-30.63-2.36Z" transform="translate(-504.29 -412.78)"/><path class="cls-1" d="M888.55,437.38l-41.64-3.21-8.27,107.39,72.53,5.59,26.62-30.23Zm19.91,103.43L845.28,536l7.34-95.34,32.12,2.48,45.53,72.4Z" transform="translate(-504.29 -412.78)"/><path class="cls-1" d="M651.3,412.78c4.35,3.57,8.72,7.18,13.11,10.76q11.16,9.07,22.35,18.09a4,4,0,0,1,1.62,3q3.95,38.2,7.94,76.4a4,4,0,0,0,1.72,3.13c3,2.22,5.81,4.58,8.61,6.82l-21.36,26.36-20.62-17-17.32,22.41-27-21.94c2.09-2.42,4.44-5,6.64-7.77a4,4,0,0,0,.81-2.64q-3.72-37.36-7.58-74.7a27.89,27.89,0,0,1-.33-3,3.45,3.45,0,0,1,.55-2.07q15.07-18.7,30.24-37.34A4.43,4.43,0,0,1,651.3,412.78Zm-28.57,38.58c2.87,1.76,2.86,1.76,5-.84l5.72-7.06c6.15-7.59,12.29-15.19,18.56-22.94l31,25.26,2.49-1.95-34.13-27.71Zm80.32,79.47c-2.49-2-4.72-3.79-7-5.51a3.83,3.83,0,0,1-1.59-3q-3.84-37.14-7.75-74.27c-.08-.71-.15-1.42-.23-2.21-2.24.94-3,2.17-2.69,4.47,2.54,23.37,5,46.74,7.31,70.13.38,3.94,1.57,6.72,4.82,9.06C698.09,531.11,700,532,703.05,530.83Zm-78.61,8.82c3.27.56,5.26-.55,6.63-2.9a4.93,4.93,0,0,1,.95-1.18,4.39,4.39,0,0,0,1.26-4.08q-4-37.23-7.84-74.47c-.24-2.37-.69-2.76-3.41-3,.06.58.12,1.14.18,1.7q4,37.51,7.87,75a4.85,4.85,0,0,1-.88,3C627.8,535.81,626.14,537.6,624.44,539.65Zm25.21-87.91,3,28.86,9.92-1-.22-2.15c-.48-4.57-1.08-9.14-1.39-13.73a6.34,6.34,0,0,0-2.79-5.18C655.36,456.46,652.7,454.18,649.65,451.74Zm-6.32-8.92,4.57,43.64,18.68-2c-1.71-2.17-3.59-3.07-6.31-2.55-3.07.59-6.24.72-9.54,1.06-.08-.82-.15-1.5-.22-2.18-1-9.59-2.16-19.17-3-28.79C647.26,448.35,645.13,445.74,643.33,442.82ZM663,529.93c3.34-2.89,5.43-5.87,4.09-10.2a15.3,15.3,0,0,1-.32-2.81l-.62-5.95-9.89,1c.46,4.39.89,8.68,1.39,13,0,.36.45.72.76,1C659.92,527.3,661.45,528.6,663,529.93Zm5.17-21.46c.54,5.14,1.17,9.95,1.49,14.78.17,2.44,1.73,3.32,3.51,4.45l-2.39-22.88-19,2c1.83,2,3.53,3.35,6.42,2.77C661.4,508.94,664.69,508.84,668.17,508.47Zm-5.66,26.39a3.61,3.61,0,0,0-1.7-4,31.9,31.9,0,0,1-4.1-3.33,4.74,4.74,0,0,1-1.38-2.48c-.51-3.75-1-7.51-1.17-11.28-.09-2.66-1.92-3.45-3.72-4.56.18,3.91.58,7.73,1,11.54.28,2.7-.15,5.77,1,8s4,3.5,6,5.31A3.43,3.43,0,0,0,662.51,534.86Zm.64,2.64a4,4,0,0,0-4.4,1.56c-3.36,4.31-6.7,8.66-10.37,12.71-1.94,2.14-1.65,4.17-1.14,6.53.23-.07.39-.07.45-.15,5-6.14,10-12.27,15-18.46C663.06,539.17,663,538.26,663.15,537.5Zm2.58-79.25c-2.44.9-3.11,2.29-2.74,4.72.74,4.79,1.25,9.62,1.52,14.46.15,2.64,1.68,3.74,3.75,5Zm20.91,94.56c5.25-6.47,10.5-12.92,15.68-19.31-3.39-.23-3.76-.08-5.87,2.51-2.74,3.38-5.31,6.9-8.26,10.08A6.13,6.13,0,0,0,686.64,552.81Zm-61.72-10.56,19.56,16c.33-3,.09-3.66-2.19-5.51-3.67-3-7.44-5.83-11-9C629.31,541.94,627.31,541.4,624.92,542.25Zm59.14,11.33c0-2.45-.16-4.37-2.29-5.93-4.16-3-8.11-6.37-12-9.72-1.39-1.2-2.71-1.29-4.75-.61a11.82,11.82,0,0,0,1.62,2.23c5.34,4.39,10.72,8.73,16.1,13.08C683.07,552.92,683.48,553.17,684.06,553.58Zm-20.47-96.73-18.24-15.51c1.66,4.07,3.87,7.6,7.62,10.07,2.35,1.55,4.45,3.49,6.67,5.26S661.88,458.45,663.59,456.85Zm1.6,77.78c3.63.14,4.15-3.19,5.95-4.73l-2.73-2.63C667.11,529.7,663.84,531,665.19,534.63Z" transform="translate(-504.29 -412.78)"/><path class="cls-1" d="M1195.92,448.76s-5.06.31-4.92,6.71l1,63.15s1.45,6.28-4.84,6.41-9.6-1.18-9-8.43-2.33-61.84-2.33-61.84,2.18-4.47-3.53-4l-26,2.22s-4.41-.15-4.5,3.46S1140.5,517,1140.5,517s-1.73,7.79,3.8,11.7,11.34,6.22,24,5.13l41.5-3.53s12.54-1.07,17-5.06,6.35-5.34,5.81-11.7l-5.15-60.39s1.38-7.2-7-6.49Z" transform="translate(-504.29 -412.78)"/><path class="cls-1" d="M1363.7,481.51A56.13,56.13,0,1,0,1318.89,547,56.13,56.13,0,0,0,1363.7,481.51Zm-17.56,9.92a44.29,44.29,0,0,1-4.18,14.91,49,49,0,0,1-7.71,12.08,31.57,31.57,0,0,1-10.19,7.78,27.19,27.19,0,0,1-6.63,2.14,30.81,30.81,0,0,1-5.64.51,34.23,34.23,0,0,1-14-3.41L1270,512.67l29.51-64.31,27.83,12.77a36.54,36.54,0,0,1,10.65,7.28,28,28,0,0,1,6.59,10.26A30.52,30.52,0,0,1,1346.14,491.43Z" transform="translate(-504.29 -412.78)"/><path class="cls-1" d="M1325.66,477.71a24.14,24.14,0,0,0-7.72-5.25l-9.26-4.25L1291,506.69l11.74,5.39a19.08,19.08,0,0,0,6,1.64,13.49,13.49,0,0,0,6.2-.87,17.34,17.34,0,0,0,6-4.09,28,28,0,0,0,5.24-8,39.58,39.58,0,0,0,3-8.88,18.42,18.42,0,0,0,0-7.69A14.29,14.29,0,0,0,1325.66,477.71Z" transform="translate(-504.29 -412.78)"/><path class="cls-1" d="M1052.21,509.23a52.69,52.69,0,0,0,1-6.76c0-3.81-.48-7.63-.38-11.43a80.15,80.15,0,0,1,1.12-12.39c.87-4.67,2.4-9.22,3.56-13.84a22.71,22.71,0,0,0,.58-4.2c.41-7.49,5.81-12.32,9.59-18a75.3,75.3,0,0,1,5.87-7.15c2.48-2.85,5.51-3.34,9.17-2.51,2.67.6,5.53.4,8.31.55.7,0,1.42,0,2.12,0a5.7,5.7,0,0,0,4.86-1.41c3.07-2.74,4.15-2.41,6.18,1.36,3.7,6.87,7.51,13.69,10.93,20.71.94,1.93.87,4.45.9,6.71,0,3.79-.08,7.59-.37,11.37-.43,5.66-1.1,11.3-1.61,17-.17,1.95-.18,3.91-.2,5.87,0,1.57-.65,2.19-2.28,2.13a120.46,120.46,0,0,1-26.78-3.6c-7-1.89-7.82-1.23-7.54,5.86.14,3.54.4,7.08.69,10.6a2.34,2.34,0,0,0,.9,1.68c.3.17,1.08-.45,1.62-.76,3.37-1.92,4.74-4.94,5.27-8.69.35-2.54,2-3.11,4.54-2.55a27.83,27.83,0,0,0,7.11.94,13.27,13.27,0,0,1,8.63,3c.69.51,1.22,2.51.81,3.06-2,2.75-1.88,6-2.46,9.06-1,5.15-2.59,10.06-6.19,13.89-2.81,3-6.29,5.24-10.74,5.12-6.21-.18-12.43-.34-18.65-.54a5.38,5.38,0,0,1-5.58-4.37c-.6-2.24-1.22-4.53-3.8-5.62-.86-.36-1.48-1.47-2-2.36a48.26,48.26,0,0,1-3.56-6.49A42.83,42.83,0,0,1,1052.21,509.23Zm39-36.48c-.8-1.78-2-3.12-1.66-3.87,1.34-3.3-2.27-5.32-1.83-8.3,0-.21-.67-.79-.93-.74-2.89.63-6-1.25-8.77.85a2.74,2.74,0,0,1-1.74.56c-2.61-.25-2.42,1.38-2.22,3.08.18,1.46.32,2.93.54,4.38.48,3.07,1,6.13,1.49,9.2l.75.1a23.77,23.77,0,0,1,2.49-3,6.7,6.7,0,0,1,3.09-1.77C1085.06,472.91,1087.78,472.93,1091.19,472.75Z" transform="translate(-504.29 -412.78)"/><path class="cls-1" d="M1104.94,558.48c-3.54-.28-7.08-.65-10.63-.81-1.26-.06-2.55.56-3.82.51a14.29,14.29,0,0,1-3.06-.93,6.22,6.22,0,0,0-2.66-.53c-3.33.73-6.58,2.08-9.94,2.45a75.28,75.28,0,0,1-11.92,0c-3.34-.18-4.3-1.58-3.38-4.77a112.65,112.65,0,0,1,3.86-11.51c.38-.92,2.1-1.62,3.3-1.81,1.88-.28,3.88.18,5.77-.08,2.9-.4,5.23.15,7,2.61.36.51,1.44,1.05,1.88.86,4.22-1.8,8.32-.35,12.2.8s7.17,3.32,10.8,4.9a6.54,6.54,0,0,0,3.26.37c1.55-.18,2,.41,1.71,1.78-.32,1.64-.4,3.43-1.15,4.85-.46.88-2,1.2-3,1.77Z" transform="translate(-504.29 -412.78)"/></svg>