<svg id="Lager_1" data-name="Lager 1" xmlns="http://www.w3.org/2000/svg" viewBox="0 0 143.32 143.32"><defs><style>.cls-1{fill:#dcdccd;}</style></defs><title>bf_play_a</title><polygon class="cls-1" points="84.3 66.24 90.01 66.02 86.76 56.09 84.3 66.24"/><path class="cls-1" d="M1084,533.36l-2.57-1-2.23,5.83,2.57,1a3.12,3.12,0,0,0,2.23-5.83Z" transform="translate(-1056.18 -474.3)"/><path class="cls-1" d="M1127.84,474.3A71.66,71.66,0,1,0,1199.5,546,71.66,71.66,0,0,0,1127.84,474.3Zm-31.56,67.11c-2.7,7.06-9.69,9.76-18.33,6.45l-2-.78-3.79,9.88a.82.82,0,0,1-1.05.38l-8.84-3.38a.8.8,0,0,1-.43-1l12.52-32.64a.81.81,0,0,1,1-.47l11.65,4.47C1095.6,527.67,1099,534.35,1096.28,541.41Zm29.51,26.79L1107,571.44a.81.81,0,0,1-.91-.59l-5.94-34.45a.81.81,0,0,1,.65-.91l9.22-1.59a.82.82,0,0,1,.92.64l4.44,25.8,9.7-1.67a.7.7,0,0,1,.8.61l.64,8.05A.91.91,0,0,1,1125.79,568.2ZM1162,553.5l-10.46.42a1.24,1.24,0,0,1-1.14-.64l-1.81-5.49-9.93.4-1.36,5.61a1.25,1.25,0,0,1-1.09.73l-10.46.41a.47.47,0,0,1-.5-.66l10.54-35.56A1.63,1.63,0,0,1,1137,518l10.78-.43a1.61,1.61,0,0,1,1.3.64l13.33,34.61A.47.47,0,0,1,1162,553.5Zm16.64-.86-3.36,13.44a.81.81,0,0,1-1,.53l-9-2.26a.8.8,0,0,1-.59-.91l3.35-13.44-6.23-23.25c-.14-.53.31-.8.77-.68l10.67,2.67a1.37,1.37,0,0,1,1,1.11l1.9,10.29,6.52-8.19a1.37,1.37,0,0,1,1.38-.52l10.67,2.66c.46.12.73.57.36,1Z" transform="translate(-1056.18 -474.3)"/></svg>